<svg width="26" height="26" viewBox="0 0 26 26" fill="none" xmlns="http://www.w3.org/2000/svg">
<g id="Union">
<path d="M24.2038 16.1844C24.1837 16.2143 24.1635 16.2444 24.143 16.274C23.8575 16.6918 23.8668 16.7464 23.9382 17.0365L24.9665 20.9531C24.977 20.993 24.9768 21.0349 24.9658 21.0746C24.9548 21.1142 24.9334 21.1503 24.9039 21.179C24.8743 21.2077 24.8377 21.2281 24.7977 21.2379C24.7577 21.2478 24.7158 21.2468 24.6763 21.2352L20.1835 19.9364C19.9577 19.8714 19.6745 19.9422 19.4935 20.0113C19.3124 20.0803 18.6125 20.3363 17.9063 20.5301C17.2 20.7239 15.9123 21.0112 14.9565 21.0112C8.94436 21.0112 4.26928 16.2113 4.26928 10.4429C4.26985 9.72421 4.34767 9.00765 4.50141 8.30558C5.52626 3.5684 9.90073 0 15.1445 0C21.1567 0 26.0186 4.6745 26 10.4371C25.9977 12.4477 25.3971 14.4121 24.2747 16.0802C24.2509 16.114 24.2274 16.1491 24.2038 16.1844Z" fill="white"/>
<path d="M14.9345 22.3687C15.3867 22.3609 15.8378 22.3212 16.2843 22.2497C16.3365 22.2416 16.39 22.2502 16.4369 22.2743C16.4839 22.2985 16.5219 22.337 16.5456 22.3842C16.5692 22.4315 16.5772 22.485 16.5685 22.5371C16.5597 22.5891 16.5346 22.6371 16.4967 22.674C14.6649 24.3964 12.2429 25.3517 9.72844 25.3434C8.42213 25.3434 7.11583 25.0579 5.93487 24.5937C5.81688 24.5423 5.68992 24.5147 5.56125 24.5126C5.43259 24.5104 5.30476 24.5336 5.18509 24.5809L1.2389 25.9876C1.20048 26.0007 1.15931 26.0035 1.11948 25.9957C1.07965 25.9879 1.04256 25.9698 1.01191 25.9432C0.981257 25.9166 0.958116 25.8824 0.944791 25.8441C0.931466 25.8057 0.928425 25.7646 0.93597 25.7247L1.75364 21.5313C1.7786 21.4187 1.69735 21.2498 1.55401 21.0311C0.410567 19.3179 -0.12583 17.271 0.0304861 15.2172C0.186802 13.1634 1.02682 11.2212 2.41637 9.70084C2.45127 9.66264 2.49708 9.63612 2.54758 9.62487C2.59808 9.61363 2.65082 9.61821 2.69862 9.63799C2.74643 9.65777 2.78698 9.69179 2.81477 9.73544C2.84256 9.77908 2.85624 9.83022 2.85394 9.8819L2.85387 9.88362C2.84751 10.0583 2.84117 10.2324 2.84117 10.4135C2.84117 13.0818 3.66639 15.6317 5.17987 17.6379C6.00708 18.7867 7.05434 19.7596 8.2608 20.5001C10.1469 21.7187 12.4722 22.3687 14.9345 22.3687Z" fill="white"/>
</g>
</svg>
